<svg width="20" height="21" viewBox="0 0 20 21" fill="none" xmlns="http://www.w3.org/2000/svg">
<path d="M19.2188 9.71875H10.7812V1.28125C10.7812 0.849766 10.4315 0.5 10 0.5C9.56852 0.5 9.21875 0.849766 9.21875 1.28125V9.71875H0.78125C0.349766 9.71875 0 10.0685 0 10.5C0 10.9315 0.349766 11.2812 0.78125 11.2812H9.21875V19.7188C9.21875 20.1502 9.56852 20.5 10 20.5C10.4315 20.5 10.7812 20.1502 10.7812 19.7188V11.2812H19.2188C19.6502 11.2812 20 10.9315 20 10.5C20 10.0685 19.6502 9.71875 19.2188 9.71875Z" fill="#8FE6FF"/>
</svg>
