<svg width="24" height="25" viewBox="0 0 24 25" fill="none" xmlns="http://www.w3.org/2000/svg">
<path d="M3.66675 4.5624L7.00008 4.16223C7.00008 4.16223 6.0477 6.56326 6.0477 9.76463C6.0477 12.966 7.00008 14.9669 7.00008 14.9669H3.66675V4.5624Z" fill="#D7DDEC"/>
<path d="M21.1328 2.83528L21.1327 2.83527C20.425 2.71489 19.7084 2.65292 18.9904 2.65C16.5405 2.64807 14.1418 3.34185 12.0803 4.64848L12.0006 4.69898L11.9206 4.64905C9.85372 3.35953 7.45535 2.68277 5.01029 2.69931L5.00988 2.69932C4.29172 2.70222 3.57506 2.76419 2.86733 2.88457L21.1328 2.83528ZM21.1328 2.83528C21.324 2.86766 21.498 2.96356 21.6259 3.10665C21.7531 3.24887 21.8273 3.42923 21.8367 3.61806L21.8367 15.4493L21.8368 15.4515C21.8386 15.5741 21.813 15.6956 21.7618 15.8074C21.7106 15.9193 21.635 16.0188 21.5403 16.0987C21.4455 16.1787 21.334 16.2372 21.2135 16.2699C21.093 16.3026 20.9667 16.3087 20.8435 16.2877L20.8419 16.2874C19.3839 16.0549 17.8935 16.1138 16.4589 16.4607C15.0271 16.8069 13.68 17.433 12.4971 18.3019L12.4193 18.3468H12.3495H12.3199L12.2925 18.358C12.1998 18.3962 12.1004 18.4158 12 18.4158C11.8996 18.4158 11.8002 18.3962 11.7075 18.358L11.6801 18.3468H11.6505H11.5807L11.502 18.3014C10.3106 17.4512 8.95934 16.8446 7.52748 16.5172C6.09324 16.1893 4.60707 16.1481 3.15649 16.3961C3.03333 16.4171 2.907 16.4111 2.78651 16.3784C2.66603 16.3457 2.55447 16.2872 2.45971 16.2072C2.36496 16.1273 2.28937 16.0278 2.23818 15.9159C2.18699 15.8041 2.16143 15.6826 2.16323 15.56L2.16325 15.56V15.5578V3.72294H2.16327M21.1328 2.83528L2.16327 3.72294M2.16327 3.72294L2.16323 3.72073M2.16327 3.72294L2.16323 3.72073M2.16323 3.72073C2.16031 3.52204 2.2293 3.32859 2.35819 3.17523C2.48711 3.02183 2.66758 2.91859 2.8673 2.88458L2.16323 3.72073ZM10.9322 15.9276L11.1513 16.0414V15.7945V6.2477V6.16648L11.0833 6.12209C9.28256 4.94675 7.17156 4.32096 5.01345 4.32247C4.6766 4.30347 4.33892 4.30355 4.00208 4.32272L3.8606 4.33077V4.47248V14.3348V14.4848H4.0106H4.01259H4.01458H4.01657H4.01856H4.02055H4.02253H4.02452H4.02651H4.0285H4.03048H4.03247H4.03446H4.03645H4.03843H4.04042H4.0424H4.04439H4.04638H4.04836H4.05035H4.05233H4.05432H4.0563H4.05828H4.06027H4.06225H4.06424H4.06622H4.0682H4.07019H4.07217H4.07415H4.07613H4.07812H4.0801H4.08208H4.08406H4.08604H4.08802H4.09H4.09198H4.09397H4.09595H4.09793H4.09991H4.10189H4.10386H4.10584H4.10782H4.1098H4.11178H4.11376H4.11574H4.11771H4.11969H4.12167H4.12365H4.12562H4.1276H4.12958H4.13155H4.13353H4.13551H4.13748H4.13946H4.14143H4.14341H4.14538H4.14736H4.14933H4.15131H4.15328H4.15526H4.15723H4.15921H4.16118H4.16315H4.16513H4.1671H4.16907H4.17104H4.17302H4.17499H4.17696H4.17893H4.1809H4.18288H4.18485H4.18682H4.18879H4.19076H4.19273H4.1947H4.19667H4.19864H4.20061H4.20258H4.20455H4.20652H4.20849H4.21046H4.21242H4.21439H4.21636H4.21833H4.2203H4.22226H4.22423H4.2262H4.22817H4.23013H4.2321H4.23407H4.23603H4.238H4.23997H4.24193H4.2439H4.24586H4.24783H4.24979H4.25176H4.25372H4.25569H4.25765H4.25962H4.26158H4.26355H4.26551H4.26747H4.26944H4.2714H4.27336H4.27533H4.27729H4.27925H4.28121H4.28318H4.28514H4.2871H4.28906H4.29102H4.29299H4.29495H4.29691H4.29887H4.30083H4.30279H4.30475H4.30671H4.30867H4.31063H4.31259H4.31455H4.31651H4.31847H4.32043H4.32239H4.32435H4.32631H4.32827H4.33022H4.33218H4.33414H4.3361H4.33806H4.34001H4.34197H4.35763H4.35958H4.36154H4.36349H4.36545H4.36741H4.36936H4.37132H4.37327H4.37523H4.37718H4.37914H4.38109H4.38304H4.385H4.38695H4.38891H4.39086H4.39281H4.39477H4.39672H4.39867H4.40063H4.40258H4.40453H4.40649H4.40844H4.41039H4.41234H4.4143H4.41625H4.4182H4.42015H4.4221H4.42405H4.42601H4.42796H4.42991H4.43186H4.43381H4.43576H4.43771H4.43966H4.44161H4.44356H4.44551H4.44746H4.44941H4.45136H4.45331H4.45526H4.45721H4.45916H4.46111H4.46306H4.465H4.46695H4.4689H4.47085H4.4728H4.47475H4.47669H4.47864H4.48059H4.48254H4.48448H4.48643H4.48838H4.49033H4.49227H4.49422H4.49617H4.49811H4.50006H4.50201H4.50395H4.5059H4.50785H4.50979H4.51174H4.51368H4.51563H4.51757H4.51952H4.52146H4.52341H4.52535H4.5273H4.52924H4.53119H4.53313H4.53508H4.53702H4.53897H4.54091H4.54286H4.5448H4.54674H4.54869H4.55063H4.55257H4.55452H4.55646H4.5584H4.56035H4.56229H4.56423H4.56618H4.56812H4.57006H4.572H4.57395H4.57589H4.57783H4.57977H4.58171H4.58366H4.5856H4.58754H4.58948H4.59142H4.59336H4.59531H4.59725H4.59919H4.60113H4.60307H4.60501H4.60695H4.60889H4.61083H4.61277H4.61471H4.61665H4.61859H4.62053H4.62247H4.62441H4.62635H4.62829H4.63023H4.63217H4.63411H4.63605H4.63799H4.63993H4.64187H4.64381H4.64575H4.64769H4.64962H4.65156H4.6535H4.65544H4.65738H4.65932H4.66126H4.66319H4.66513H4.66707H4.66901H4.67095H4.67288H4.67482H4.67676H4.6787H4.68063H4.68257H4.68451H4.68645H4.68838H4.69032H4.69226H4.6942H4.69613H4.69807H4.70001H4.70194H4.70388H4.70582H4.70775H4.70969H4.71162H4.71356H4.7155H4.71743H4.71937H4.72131H4.72324H4.72518H4.72711H4.72905H4.73098H4.73292H4.73486H4.73679H4.73873H4.74066H4.7426H4.74453H4.74647H4.7484H4.75034H4.75227H4.75421H4.75614H4.75808H4.76001H4.76195H4.76388H4.76582H4.76775H4.76969H4.77162H4.77355H4.77549H4.77742H4.77936H4.78129H4.78323H4.78516H4.78709H4.78903H4.79096H4.7929H4.79483H4.79676H4.7987H4.80063H4.80256H4.8045H4.80643H4.80836H4.8103H4.81223H4.81416H4.8161H4.81803H4.81996H4.8219H4.82383H4.82576H4.8277H4.82963H4.83156H4.8335H4.83543H4.83736H4.83929H4.84123H4.84316H4.84509H4.84702H4.84896H4.85089H4.85282H4.85475H4.85669H4.85862H4.86055H4.86248H4.86442H4.86635H4.86828H4.87021H4.87215H4.87408H4.87601H4.87794H4.87987H4.88181H4.88374H4.88567H4.8876H4.88953H4.89147H4.8934H4.89533H4.89726H4.89919H4.90112H4.90306H4.90499H4.90692H4.90885H4.91078H4.91271H4.91465H4.91658H4.93203H4.93396H4.93589H4.93782H4.93975H4.94169H4.94362H4.94555H4.94748H4.94941H4.95134H4.95327H4.9552H4.95714H4.95907H4.961H4.96293H4.96486H4.96679H4.96872H4.97065H4.97259H4.97452H4.97645H4.97838H4.98031H4.98224H4.98417H4.9861H4.98803H4.98996H4.9919H4.99383H4.99576H4.99769H4.99962H5.00155H5.00348H5.00541H5.00734H5.00928H5.00937C7.07308 14.4836 9.10596 14.9788 10.9322 15.9276ZM19.9894 14.5243H20.1394V14.3743V4.47248V4.33077L19.9979 4.32272C19.6611 4.30355 19.3234 4.30347 18.9865 4.32247C16.8284 4.32096 14.7174 4.94675 12.9167 6.12209L12.8487 6.16648V6.2477V15.8339V16.0809L13.0678 15.967C14.894 15.0183 16.9269 14.523 18.9906 14.5243H18.9907H18.9927H18.9946H18.9965H18.9984H19.0004H19.0023H19.0042H19.0062H19.0081H19.01H19.012H19.0139H19.0158H19.0178H19.0197H19.0216H19.0236H19.0255H19.0274H19.0293H19.0313H19.0332H19.0351H19.0371H19.039H19.0409H19.0429H19.0448H19.0467H19.0487H19.0506H19.0525H19.0544H19.0564H19.0583H19.0602H19.0622H19.0641H19.066H19.068H19.0699H19.0718H19.0738H19.0757H19.0776H19.0796H19.0815H19.0834H19.0854H19.0873H19.0892H19.0911H19.0931H19.095H19.0969H19.0989H19.1008H19.1027H19.1047H19.1066H19.1085H19.1105H19.1124H19.1143H19.1163H19.1182H19.1201H19.1221H19.124H19.1259H19.1279H19.1298H19.1317H19.1336H19.1356H19.1375H19.1394H19.1414H19.1433H19.1452H19.1472H19.1491H19.151H19.153H19.1549H19.1568H19.1588H19.1607H19.1626H19.1646H19.1665H19.1684H19.1704H19.1723H19.1742H19.1762H19.1781H19.18H19.182H19.1839H19.1858H19.1878H19.1897H19.1916H19.1936H19.1955H19.1974H19.1994H19.2013H19.2032H19.2052H19.2071H19.209H19.211H19.2129H19.2148H19.2168H19.2187H19.2206H19.2226H19.2245H19.2264H19.2284H19.2303H19.2322H19.2342H19.2361H19.2381H19.24H19.2419H19.2439H19.2458H19.2477H19.2497H19.2516H19.2535H19.2555H19.2574H19.2593H19.2613H19.2632H19.2651H19.2671H19.269H19.271H19.2729H19.2748H19.2768H19.2787H19.2806H19.2826H19.2845H19.2864H19.2884H19.2903H19.2922H19.2942H19.2961H19.2981H19.3H19.3019H19.3039H19.3058H19.3077H19.3097H19.3116H19.3136H19.3155H19.3174H19.3194H19.3213H19.3232H19.3252H19.3271H19.3291H19.331H19.3329H19.3349H19.3368H19.3387H19.3407H19.3426H19.3446H19.3465H19.3484H19.3504H19.3523H19.3543H19.3562H19.3581H19.3601H19.362H19.3639H19.3659H19.3678H19.3698H19.3717H19.3736H19.3756H19.3775H19.3795H19.3814H19.3833H19.3853H19.3872H19.3892H19.3911H19.393H19.395H19.3969H19.3989H19.4008H19.4028H19.4047H19.4066H19.4086H19.4105H19.4125H19.4144H19.4163H19.4183H19.4202H19.4222H19.4241H19.4261H19.428H19.4299H19.4319H19.4338H19.4358H19.4377H19.4397H19.4416H19.4435H19.4455H19.4474H19.4494H19.4513H19.4533H19.4552H19.4571H19.4591H19.461H19.463H19.4649H19.4669H19.4688H19.4708H19.4727H19.4746H19.4766H19.4785H19.4805H19.4824H19.4844H19.4863H19.4883H19.4902H19.4922H19.4941H19.496H19.498H19.4999H19.5019H19.5038H19.5058H19.5077H19.5097H19.5116H19.5136H19.5155H19.5175H19.5194H19.5214H19.5233H19.5253H19.5272H19.5291H19.5311H19.533H19.535H19.5369H19.5389H19.5408H19.5428H19.5447H19.5467H19.5486H19.5506H19.5525H19.5545H19.5564H19.5584H19.5603H19.5623H19.5642H19.5662H19.5681H19.5701H19.572H19.574H19.5759H19.5779H19.5798H19.5818H19.5838H19.5857H19.5877H19.5896H19.5916H19.5935H19.5955H19.5974H19.5994H19.6013H19.6033H19.6052H19.6072H19.6091H19.6111H19.613H19.615H19.617H19.6189H19.6209H19.6228H19.6248H19.6267H19.6287H19.6306H19.6326H19.6345H19.6365H19.6385H19.6404H19.6424H19.6443H19.6463H19.6482H19.6502H19.6522H19.6541H19.6561H19.658H19.66H19.6619H19.6639H19.6659H19.6678H19.6698H19.6717H19.6737H19.6756H19.6776H19.6796H19.6815H19.6835H19.6854H19.6874H19.6894H19.6913H19.6933H19.6952H19.6972H19.6992H19.7011H19.7031H19.7051H19.707H19.709H19.7109H19.7129H19.7149H19.7168H19.7188H19.7207H19.7227H19.7247H19.7266H19.7286H19.7306H19.7325H19.7345H19.7365H19.7384H19.7404H19.7423H19.7443H19.7463H19.7482H19.7502H19.7522H19.7541H19.7561H19.7581H19.76H19.762H19.764H19.7659H19.7679H19.7699H19.7718H19.7738H19.7758H19.7777H19.7797H19.7817H19.7836H19.7856H19.7876H19.7895H19.7915H19.7935H19.7955H19.7974H19.7994H19.8014H19.8033H19.8053H19.8073H19.8092H19.8112H19.8132H19.8152H19.8171H19.8191H19.8211H19.823H19.825H19.827H19.829H19.8309H19.8329H19.8349H19.8368H19.8388H19.8408H19.8428H19.8447H19.8467H19.8487H19.8507H19.8526H19.8546H19.8566H19.8586H19.8605H19.8625H19.8645H19.8665H19.8684H19.8704H19.8724H19.8744H19.8764H19.8783H19.8803H19.8823H19.8843H19.8862H19.8882H19.8902H19.8922H19.8942H19.8961H19.8981H19.9001H19.9021H19.9041H19.906H19.908H19.91H19.912H19.914H19.9159H19.9179H19.9199H19.9219H19.9239H19.9258H19.9278H19.9298H19.9318H19.9338H19.9358H19.9377H19.9397H19.9417H19.9437H19.9457H19.9477H19.9497H19.9516H19.9536H19.9556H19.9576H19.9596H19.9616H19.9636H19.9655H19.9675H19.9695H19.9715H19.9735H19.9755H19.9775H19.9795H19.9814H19.9834H19.9854H19.9874H19.9894ZM21.1327 18.6151L21.1346 18.6154C21.2453 18.6327 21.3514 18.6715 21.4467 18.7294C21.542 18.7873 21.6247 18.8632 21.69 18.9526C21.7553 19.0419 21.802 19.1431 21.8275 19.2501C21.8529 19.3565 21.8568 19.4667 21.8392 19.5744C21.7958 19.7902 21.6678 19.9808 21.4823 20.1045C21.2961 20.2287 21.0673 20.275 20.8463 20.2331L20.8436 20.2326C19.393 19.9846 17.9068 20.0257 16.4725 20.3537C15.0384 20.6815 13.6852 21.2895 12.4925 22.1418C12.3488 22.2427 12.1767 22.297 12 22.297C11.8233 22.297 11.6511 22.2427 11.5075 22.1418C10.3148 21.2895 8.96154 20.6815 7.52748 20.3537C6.09321 20.0257 4.60702 19.9846 3.15642 20.2326L3.15642 20.2326L3.15375 20.2331C2.93266 20.275 2.70391 20.2287 2.5177 20.1045C2.3322 19.9808 2.20421 19.7902 2.16084 19.5744C2.14318 19.4666 2.14713 19.3565 2.17245 19.2501C2.19796 19.1431 2.24467 19.0419 2.30999 18.9526C2.37531 18.8632 2.45797 18.7873 2.55328 18.7294C2.6486 18.6715 2.75466 18.6327 2.86538 18.6154L2.8673 18.6151C3.57499 18.4947 4.2916 18.4327 5.00971 18.4298C7.45958 18.4279 9.85821 19.1217 11.9197 20.4283L12 20.4792L12.0803 20.4283C14.1418 19.1217 16.5404 18.4279 18.9903 18.4298C19.7084 18.4327 20.425 18.4947 21.1327 18.6151Z" fill="#376AED" stroke="white" stroke-width="0.3"/>
<path d="M21.1325 18.6285L21.1325 18.6285L21.1344 18.6288C21.2449 18.6463 21.3509 18.6854 21.4462 18.7438C21.5414 18.8023 21.6242 18.879 21.6896 18.9694C21.755 19.0598 21.8019 19.1622 21.8275 19.2707C21.8529 19.3785 21.8568 19.4901 21.8391 19.5994C21.7956 19.8181 21.6672 20.0109 21.4817 20.1358C21.2956 20.2612 21.0672 20.3079 20.8465 20.2656L20.8438 20.2651C19.393 20.0146 17.9066 20.0562 16.4722 20.3874C15.038 20.7185 13.6846 21.3326 12.4919 22.1934C12.3483 22.2952 12.1763 22.35 12 22.35C11.8236 22.35 11.6517 22.2952 11.5081 22.1934C10.3154 21.3326 8.96203 20.7185 7.52779 20.3874C6.09335 20.0562 4.60697 20.0146 3.15618 20.2651L3.15617 20.2651L3.15348 20.2656C2.93283 20.3079 2.7044 20.2612 2.51827 20.1358C2.33278 20.0109 2.2044 19.8181 2.16088 19.5994C2.14316 19.4901 2.14711 19.3785 2.17253 19.2707C2.19812 19.1622 2.24497 19.0598 2.3104 18.9694C2.37584 18.879 2.45856 18.8023 2.55384 18.7438C2.64913 18.6854 2.75507 18.6463 2.8656 18.6288L2.8656 18.6288L2.86755 18.6285C3.57513 18.5069 4.29164 18.4443 5.00965 18.4414C7.45923 18.4394 9.85768 19.14 11.9191 20.4596L12 20.5113L12.0809 20.4596C14.1423 19.14 16.5408 18.4394 18.9904 18.4414C19.7084 18.4443 20.4249 18.5069 21.1325 18.6285Z" fill="#4DC4E7" stroke="#4DC4E7" stroke-width="0.3"/>
</svg>
