<svg width="20" height="20" viewBox="0 0 20 20" fill="none" xmlns="http://www.w3.org/2000/svg">
<path d="M19.4281 17.9549L11.4731 9.99998L19.4281 2.04503C19.8349 1.63822 19.8349 0.978698 19.4281 0.57189C19.0213 0.165083 18.3618 0.165083 17.955 0.57189L10 8.52684L2.04505 0.57189C1.63824 0.165083 0.978718 0.165083 0.57191 0.57189C0.165103 0.978698 0.165103 1.63822 0.57191 2.04503L8.52686 9.99998L0.571909 17.9549C0.165103 18.3617 0.165103 19.0213 0.57191 19.4281C0.978718 19.8349 1.63824 19.8349 2.04505 19.4281L10 11.4731L17.955 19.4281C18.3618 19.8349 19.0213 19.8349 19.4281 19.4281C19.8349 19.0213 19.8349 18.3617 19.4281 17.9549Z" fill="white"/>
</svg>
