<svg version="1.1" xmlns="http://www.w3.org/2000/svg" xmlns:xlink="http://www.w3.org/1999/xlink" viewBox="0 0 172 172"><g fill="none" fill-rule="nonzero" stroke="none" stroke-width="1" stroke-linecap="butt" stroke-linejoin="miter" stroke-miterlimit="10" stroke-dasharray="" stroke-dashoffset="0" style="mix-blend-mode: normal"><path d="M0,172v-172h172v172z" fill="none"></path><g fill="#71bfbc"><path d="M143.33333,43c0,0 -16.42958,-12.857 -35.83333,-14.33333l-1.74867,3.49733c17.544,4.29283 25.59217,10.44542 33.99867,18.00267c-14.49458,-7.39958 -28.80642,-14.33333 -53.75,-14.33333c-24.94358,0 -39.25542,6.93375 -53.75,14.33333c8.4065,-7.55725 17.98117,-14.38708 33.99867,-18.00267l-1.74867,-3.49733c-20.35692,1.92425 -35.83333,14.33333 -35.83333,14.33333c0,0 -18.35025,26.60625 -21.5,78.83333c18.49717,21.33158 46.58333,21.5 46.58333,21.5l5.87308,-7.82958c-9.96883,-3.46508 -21.22767,-9.6535 -30.95642,-20.83708c11.60283,8.77917 29.11458,17.91667 57.33333,17.91667c28.21875,0 45.7305,-9.1375 57.33333,-17.91667c-9.72875,11.18358 -20.98758,17.372 -30.95642,20.83708l5.87308,7.82958c0,0 28.08617,-0.16842 46.58333,-21.5c-3.14975,-52.22708 -21.5,-78.83333 -21.5,-78.83333zM62.70833,107.5c-6.92658,0 -12.54167,-6.41775 -12.54167,-14.33333c0,-7.91558 5.61508,-14.33333 12.54167,-14.33333c6.92658,0 12.54167,6.41775 12.54167,14.33333c0,7.91558 -5.61508,14.33333 -12.54167,14.33333zM109.29167,107.5c-6.92658,0 -12.54167,-6.41775 -12.54167,-14.33333c0,-7.91558 5.61508,-14.33333 12.54167,-14.33333c6.92658,0 12.54167,6.41775 12.54167,14.33333c0,7.91558 -5.61508,14.33333 -12.54167,14.33333z"></path></g></g></svg>