<svg width="24" height="24" viewBox="0 0 24 24" fill="none" xmlns="http://www.w3.org/2000/svg">
<path d="M6.34574 21.2025C4.34848 21.0293 2.78125 19.3535 2.78125 17.3113V10.7382C2.78125 9.51978 3.34977 8.37115 4.31855 7.63225L9.63105 3.58033C11.0301 2.51326 12.9699 2.51326 14.3689 3.58033L14.7283 3.85443C13.7689 3.75975 12.7819 4.01943 11.9748 4.63502L5.65672 9.45393C5.32164 9.70947 5.125 10.1068 5.125 10.5282V18.366C5.125 19.4831 5.59402 20.4905 6.34574 21.2025Z" fill="#D7DDEC"/>
<path d="M17.3125 21.9989H6.6875C4.10281 21.9989 2 19.8961 2 17.3114V10.7383C2 9.28557 2.68965 7.89225 3.84477 7.0112L9.15727 2.95928C10.8311 1.68268 13.1689 1.68268 14.8427 2.95928L20.1552 7.0112C21.3104 7.89221 22 9.28553 22 10.7383V17.3114C22 19.8961 19.8972 21.9989 17.3125 21.9989ZM12 3.56334C11.3313 3.56334 10.6629 3.77608 10.1048 4.20163L4.79234 8.25354C4.02227 8.84092 3.5625 9.76979 3.5625 10.7383V17.3114C3.5625 19.0346 4.96438 20.4364 6.6875 20.4364H17.3125C19.0356 20.4364 20.4375 19.0346 20.4375 17.3114V10.7383C20.4375 9.76983 19.9777 8.84092 19.2077 8.25358L13.8952 4.20166C13.3373 3.7762 12.6686 3.56334 12 3.56334Z" fill="#7B8BB2"/>
<path d="M14.8125 17.5845H9.22656C7.93422 17.5845 6.88281 16.5331 6.88281 15.2407V12.311C6.88281 11.0187 7.93422 9.96729 9.22656 9.96729H10.3144C10.9799 9.96729 11.5865 10.2295 12.0361 10.6561C12.4843 10.2294 13.09 9.96729 13.7557 9.96729H14.8125C16.1048 9.96729 17.1562 11.0187 17.1562 12.311V15.2407C17.1562 16.5331 16.1048 17.5845 14.8125 17.5845ZM9.22656 11.5298C8.79578 11.5298 8.44531 11.8803 8.44531 12.311V15.2407C8.44531 15.6715 8.79578 16.022 9.22656 16.022H14.8125C15.2433 16.022 15.5938 15.6715 15.5938 15.2407V12.311C15.5938 11.8803 15.2433 11.5298 14.8125 11.5298H13.7557C13.2402 11.5298 12.8207 11.9508 12.8203 12.4684V12.4704V13.9126C12.8203 14.3441 12.4705 14.6939 12.0391 14.6939C11.6076 14.6939 11.2578 14.3441 11.2578 13.9126V12.4713C11.255 11.9521 10.832 11.5298 10.3144 11.5298H9.22656Z" fill="#D7DDEC"/>
</svg>
