<svg width="24" height="25" viewBox="0 0 24 25" fill="none" xmlns="http://www.w3.org/2000/svg">
<g clip-path="url(#clip0)">
<path d="M6.34574 21.7025C4.34848 21.5293 2.78125 19.8535 2.78125 17.8113V11.2382C2.78125 10.0198 3.34977 8.87115 4.31855 8.13225L9.63105 4.08033C11.0301 3.01326 12.9699 3.01326 14.3689 4.08033L14.7283 4.35443C13.7689 4.25975 12.7819 4.51943 11.9748 5.13502L5.65672 9.95393C5.32164 10.2095 5.125 10.6068 5.125 11.0282V18.866C5.125 19.9831 5.59402 20.9905 6.34574 21.7025Z" fill="#CEE1F2"/>
<path d="M17.3125 22.4989H6.6875C4.10281 22.4989 2 20.3961 2 17.8114V11.2383C2 9.78557 2.68965 8.39225 3.84477 7.5112L9.15727 3.45928C10.8311 2.18268 13.1689 2.18268 14.8427 3.45928L20.1552 7.5112C21.3104 8.39221 22 9.78553 22 11.2383V17.8114C22 20.3961 19.8972 22.4989 17.3125 22.4989ZM12 4.06334C11.3313 4.06334 10.6629 4.27608 10.1048 4.70163L4.79234 8.75354C4.02227 9.34092 3.5625 10.2698 3.5625 11.2383V17.8114C3.5625 19.5346 4.96438 20.9364 6.6875 20.9364H17.3125C19.0356 20.9364 20.4375 19.5346 20.4375 17.8114V11.2383C20.4375 10.2698 19.9777 9.34092 19.2077 8.75358L13.8952 4.70166C13.3373 4.2762 12.6686 4.06334 12 4.06334Z" fill="#376AED"/>
<path d="M14.8125 18.0845H9.22656C7.93422 18.0845 6.88281 17.0331 6.88281 15.7407V12.811C6.88281 11.5187 7.93422 10.4673 9.22656 10.4673H10.3144C10.9799 10.4673 11.5865 10.7295 12.0361 11.1561C12.4843 10.7294 13.09 10.4673 13.7557 10.4673H14.8125C16.1048 10.4673 17.1562 11.5187 17.1562 12.811V15.7407C17.1562 17.0331 16.1048 18.0845 14.8125 18.0845ZM9.22656 12.0298C8.79578 12.0298 8.44531 12.3803 8.44531 12.811V15.7407C8.44531 16.1715 8.79578 16.522 9.22656 16.522H14.8125C15.2433 16.522 15.5938 16.1715 15.5938 15.7407V12.811C15.5938 12.3803 15.2433 12.0298 14.8125 12.0298H13.7557C13.2402 12.0298 12.8207 12.4508 12.8203 12.9684V12.9704V14.4126C12.8203 14.8441 12.4705 15.1939 12.0391 15.1939C11.6076 15.1939 11.2578 14.8441 11.2578 14.4126V12.9713C11.255 12.4521 10.832 12.0298 10.3144 12.0298H9.22656Z" fill="#4DC4E7"/>
</g>
<defs>
<clipPath id="clip0">
<rect width="20" height="20" fill="white" transform="translate(2 2.5)"/>
</clipPath>
</defs>
</svg>
