<svg xmlns="http://www.w3.org/2000/svg" viewBox="0 0 172 172">
  <defs>
    <linearGradient x1="86" y1="13.666" x2="86" y2="157.224" gradientUnits="userSpaceOnUse" id="a">
      <stop offset="0" stop-color="#216383"/>
      <stop offset="1" stop-color="#71bfbc"/>
    </linearGradient>
    <linearGradient x1="85.995" y1="13.666" x2="85.995" y2="157.224" gradientUnits="userSpaceOnUse" id="b">
      <stop offset="0" stop-color="#216383"/>
      <stop offset="1" stop-color="#71bfbc"/>
    </linearGradient>
    <linearGradient x1="69.875" y1="13.666" x2="69.875" y2="157.224" gradientUnits="userSpaceOnUse" id="c">
      <stop offset="0" stop-color="#216383"/>
      <stop offset="1" stop-color="#71bfbc"/>
    </linearGradient>
    <linearGradient x1="102.125" y1="13.666" x2="102.125" y2="157.224" gradientUnits="userSpaceOnUse" id="d">
      <stop offset="0" stop-color="#216383"/>
      <stop offset="1" stop-color="#71bfbc"/>
    </linearGradient>
    <linearGradient x1="118.25" y1="13.666" x2="118.25" y2="157.224" gradientUnits="userSpaceOnUse" id="e">
      <stop offset="0" stop-color="#216383"/>
      <stop offset="1" stop-color="#71bfbc"/>
    </linearGradient>
    <linearGradient x1="53.75" y1="13.666" x2="53.75" y2="157.224" gradientUnits="userSpaceOnUse" id="f">
      <stop offset="0" stop-color="#216383"/>
      <stop offset="1" stop-color="#71bfbc"/>
    </linearGradient>
    <linearGradient x1="113.028" y1="51.748" x2="113.028" y2="107.003" gradientUnits="userSpaceOnUse" id="g">
      <stop offset="0" stop-color="#44a2d0"/>
      <stop offset="1" stop-color="#bee2e1"/>
    </linearGradient>
    <linearGradient x1="58.972" y1="51.748" x2="58.972" y2="107.003" gradientUnits="userSpaceOnUse" id="h">
      <stop offset="0" stop-color="#44a2d0"/>
      <stop offset="1" stop-color="#bee2e1"/>
    </linearGradient>
  </defs>
  <g fill="none" stroke-miterlimit="10" style="mix-blend-mode:normal">
    <path d="M0 172V0h172v172z"/>
    <path transform="scale(2.6875)" fill="url(#a)" d="M31 51h2v8h-2z"/>
    <path d="M152.118 114.587l-59.074-94.39c-1.432-2.554-4.066-4.072-7.044-4.072-2.956 0-5.568 1.497-7.006 4.007l-59.176 94.562c-1.51 2.688-1.304 5.891.534 8.37 1.925 2.587 5.096 3.751 8.291 3.047l56.736-12.62a2.743 2.743 0 011.236 0l56.736 12.62a8.348 8.348 0 001.844.201 7.97 7.97 0 006.447-3.249c1.844-2.478 2.048-5.681.476-8.476zm-124.641 6.275a2.674 2.674 0 01-2.808-1.002c-.272-.366-.83-1.344-.229-2.422l58.873-94.076v85.079zm119.854-1.002c-.244.328-1.177 1.376-2.808 1.002l-55.836-12.421V23.362l58.811 93.969c.664 1.185.105 2.163-.167 2.529z" fill="url(#b)"/>
    <path transform="scale(2.6875)" fill="url(#c)" d="M25 49h2v6h-2z"/>
    <path transform="scale(2.6875)" fill="url(#d)" d="M37 49h2v6h-2z"/>
    <path transform="scale(2.6875)" fill="url(#e)" d="M43 47h2v6h-2z"/>
    <path transform="scale(2.6875)" fill="url(#f)" d="M19 47h2v6h-2z"/>
    <path d="M94.063 51.828V100.3c0 .63.438 1.175 1.05 1.312l35.242 7.84c1.163.257 2.064-1.014 1.43-2.025l-35.24-56.31c-.717-1.146-2.482-.638-2.482.711z" fill="url(#g)"/>
    <path d="M75.454 51.116l-35.24 56.311c-.632 1.01.265 2.285 1.429 2.024l35.241-7.84a1.34 1.34 0 001.054-1.31V51.827c0-1.349-1.766-1.857-2.484-.712z" fill="url(#h)"/>
  </g>
</svg>