<svg version="1.1" xmlns="http://www.w3.org/2000/svg" xmlns:xlink="http://www.w3.org/1999/xlink" viewBox="0 0 172 172"><g fill="none" fill-rule="nonzero" stroke="none" stroke-width="1" stroke-linecap="butt" stroke-linejoin="miter" stroke-miterlimit="10" stroke-dasharray="" stroke-dashoffset="0" style="mix-blend-mode: normal"><path d="M0,172v-172h172v172z" fill="none"></path><g fill="#71bfbc"><path d="M113.52,30.96c-9.97062,0 -19.26937,2.75469 -27.52,7.56531c-8.25062,-4.81063 -17.54937,-7.56531 -27.52,-7.56531c-30.27469,0 -55.04,24.76531 -55.04,55.04c0,30.27469 24.76531,55.04 55.04,55.04c9.97063,0 19.26938,-2.75469 27.52,-7.56531c8.25063,4.81063 17.54938,7.56531 27.52,7.56531c30.27469,0 55.04,-24.76531 55.04,-55.04c0,-30.27469 -24.76531,-55.04 -55.04,-55.04zM58.48,134.16c-26.48531,0 -48.16,-21.67469 -48.16,-48.16c0,-26.48531 21.67469,-48.16 48.16,-48.16c7.56531,0 14.79469,1.72 20.98938,4.81063c-12.73875,10.32 -20.98938,25.8 -20.98938,43.34937c0,17.54938 8.25063,33.02938 20.98938,43.34938c-6.19469,3.09062 -13.42406,4.81062 -20.98938,4.81062zM113.52,134.16c-7.56531,0 -14.79469,-1.72 -20.98937,-4.81062c12.73875,-10.32 20.98937,-25.8 20.98937,-43.34938c0,-17.54937 -8.25062,-33.02937 -20.98937,-43.34937c6.54406,-3.09063 13.42406,-4.81063 20.98937,-4.81063c26.48531,0 48.16,21.67469 48.16,48.16c0,26.48531 -21.67469,48.16 -48.16,48.16z"></path></g></g></svg>