<svg width="23" height="25" viewBox="0 0 23 25" fill="none" xmlns="http://www.w3.org/2000/svg">
<circle cx="11" cy="11" r="10" fill="#7D4C9B" stroke="#F9FBFF" stroke-width="2"/>
<g clip-path="url(#clip0)" filter="url(#filter0_d)">
<path d="M11 6.7285C10.793 6.7285 10.625 6.5605 10.625 6.3535V5.375C10.625 5.168 10.793 5 11 5C11.207 5 11.375 5.168 11.375 5.375V6.3535C11.375 6.5605 11.207 6.7285 11 6.7285Z" fill="white"/>
<path d="M14.2858 8.08959C14.1898 8.08959 14.0938 8.05309 14.0208 7.97959C13.8743 7.83309 13.8743 7.59559 14.0208 7.44909L14.7128 6.75709C14.8593 6.61059 15.0968 6.61059 15.2432 6.75709C15.3897 6.90359 15.3897 7.14109 15.2432 7.28759L14.5513 7.97959C14.4778 8.05259 14.3818 8.08959 14.2858 8.08959Z" fill="white"/>
<path d="M16.6252 11.375H15.6467C15.4397 11.375 15.2717 11.207 15.2717 11C15.2717 10.793 15.4397 10.625 15.6467 10.625H16.6252C16.8322 10.625 17.0002 10.793 17.0002 11C17.0002 11.207 16.8322 11.375 16.6252 11.375Z" fill="white"/>
<path d="M14.9778 15.3523C14.8818 15.3523 14.7858 15.3158 14.7128 15.2423L14.0208 14.5503C13.8743 14.4038 13.8743 14.1663 14.0208 14.0198C14.1673 13.8733 14.4048 13.8733 14.5513 14.0198L15.2432 14.7118C15.3897 14.8583 15.3897 15.0958 15.2432 15.2423C15.1698 15.3158 15.0738 15.3523 14.9778 15.3523Z" fill="white"/>
<path d="M7.02233 15.3523C6.92633 15.3523 6.83034 15.3158 6.75734 15.2423C6.61084 15.0958 6.61084 14.8583 6.75734 14.7118L7.44933 14.0198C7.59583 13.8733 7.83333 13.8733 7.97983 14.0198C8.12633 14.1663 8.12633 14.4038 7.97983 14.5503L7.28783 15.2423C7.21433 15.3158 7.11833 15.3523 7.02233 15.3523Z" fill="white"/>
<path d="M6.3535 11.375H5.375C5.168 11.375 5 11.207 5 11C5 10.793 5.168 10.625 5.375 10.625H6.3535C6.5605 10.625 6.7285 10.793 6.7285 11C6.7285 11.207 6.5605 11.375 6.3535 11.375Z" fill="white"/>
<path d="M7.71433 8.08959C7.61833 8.08959 7.52233 8.05309 7.44933 7.97959L6.75734 7.28759C6.61084 7.14109 6.61084 6.90359 6.75734 6.75709C6.90383 6.61059 7.14133 6.61059 7.28783 6.75709L7.97983 7.44909C8.12633 7.59559 8.12633 7.83309 7.97983 7.97959C7.90583 8.05259 7.81033 8.08959 7.71433 8.08959Z" fill="white"/>
<path d="M12.5 15.5V16.125C12.5 16.605 12.105 17 11.625 17H10.375C9.955 17 9.5 16.68 9.5 15.98V15.5H12.5Z" fill="white"/>
<path d="M13.2052 8.28005C12.3852 7.61505 11.3052 7.35505 10.2502 7.58005C8.92515 7.85505 7.85015 8.93505 7.57515 10.26C7.29515 11.62 7.80515 12.97 8.89515 13.795C9.19015 14.015 9.39515 14.355 9.46515 14.75V14.755C9.47515 14.75 9.49015 14.75 9.50015 14.75H12.5002C12.5102 14.75 12.5152 14.75 12.5252 14.755V14.75C12.5952 14.37 12.8202 14.02 13.1652 13.75C14.0102 13.08 14.5002 12.08 14.5002 11C14.5002 9.94005 14.0302 8.95005 13.2052 8.28005Z" fill="white"/>
<path d="M9.46484 14.75H9.49984C9.48984 14.75 9.47484 14.75 9.46484 14.755V14.75Z" fill="white"/>
<path d="M12.525 14.75V14.755C12.515 14.75 12.51 14.75 12.5 14.75H12.525Z" fill="white"/>
</g>
<defs>
<filter id="filter0_d" x="1" y="3" width="22" height="22" filterUnits="userSpaceOnUse" color-interpolation-filters="sRGB">
<feFlood flood-opacity="0" result="BackgroundImageFix"/>
<feColorMatrix in="SourceAlpha" type="matrix" values="0 0 0 0 0 0 0 0 0 0 0 0 0 0 0 0 0 0 127 0"/>
<feOffset dx="1" dy="3"/>
<feGaussianBlur stdDeviation="2.5"/>
<feColorMatrix type="matrix" values="0 0 0 0 0 0 0 0 0 0 0 0 0 0 0 0 0 0 0.2 0"/>
<feBlend mode="normal" in2="BackgroundImageFix" result="effect1_dropShadow"/>
<feBlend mode="normal" in="SourceGraphic" in2="effect1_dropShadow" result="shape"/>
</filter>
<clipPath id="clip0">
<rect width="12" height="12" fill="white" transform="translate(5 5)"/>
</clipPath>
</defs>
</svg>
