<svg version="1.1" xmlns="http://www.w3.org/2000/svg" xmlns:xlink="http://www.w3.org/1999/xlink" viewBox="0 0 172 172">
  <g fill="none" fill-rule="nonzero" stroke="none" stroke-width="1" stroke-linecap="butt" stroke-linejoin="miter" stroke-miterlimit="10" stroke-dasharray="" stroke-dashoffset="0" style="mix-blend-mode: normal">
    <path d="M0,172v-172h172v172z" fill="none"></path>
    <g>
      <path d="M150.5,132.58333c0,9.89717 -8.0195,17.91667 -17.91667,17.91667h-93.16667c-9.89358,0 -17.91667,-8.0195 -17.91667,-17.91667v-93.16667c0,-9.89717 8.02308,-17.91667 17.91667,-17.91667h93.16667c9.89717,0 17.91667,8.0195 17.91667,17.91667z" fill="#71bfbc"></path>
      <path d="M43,68.08333h17.91667v60.91667h-17.91667zM51.90458,60.91667h-0.10033c-5.34633,0 -8.80425,-3.98467 -8.80425,-8.96192c0,-5.08475 3.56542,-8.95475 9.0085,-8.95475c5.45025,0 8.80783,3.87 8.90817,8.95475c0,4.97367 -3.45792,8.96192 -9.01208,8.96192zM129,129h-17.91667v-32.60475c0,-7.87617 -4.38958,-13.25117 -11.438,-13.25117c-5.37858,0 -8.28825,3.62633 -9.70008,7.13083c-0.516,1.25417 -0.36192,4.72283 -0.36192,6.47508v32.25h-17.91667v-60.91667h17.91667v9.374c2.58358,-3.999 6.62917,-9.374 16.97783,-9.374c12.82117,0 22.43525,8.0625 22.43525,26.06517l0.00358,34.8515z" fill="#ffffff"></path>
    </g>
  </g>
</svg>