<svg width="23" height="23" viewBox="0 0 23 23" fill="none" xmlns="http://www.w3.org/2000/svg">
<circle cx="11" cy="11" r="10" fill="#FE9063" stroke="#F9FBFF" stroke-width="2"/>
<g filter="url(#filter0_d)">
<path d="M7.41451 13.8009C7.99897 14.1384 8.67844 14.3647 9.40287 14.4303C8.1511 13.7374 7.47458 12.7755 7.15613 12.224C6.80593 11.6175 6.56923 10.9603 6.45153 10.2688C6.10182 10.2838 5.75368 10.336 5.41496 10.426C5.26027 10.463 5.14526 10.6022 5.14526 10.7682C5.14526 10.799 5.14929 10.8296 5.15726 10.8593C5.51633 12.1985 6.39303 13.2112 7.41451 13.8009Z" fill="white"/>
<path d="M12.5972 14.4302C13.3216 14.3646 14.0011 14.1384 14.5855 13.8009C15.607 13.2112 16.4837 12.1985 16.8428 10.8593C16.8508 10.8296 16.8548 10.799 16.8548 10.7682C16.8548 10.6022 16.7398 10.463 16.5851 10.426C16.2464 10.336 15.8982 10.2838 15.5485 10.2688C15.4308 10.9603 15.1941 11.6175 14.8439 12.224C14.5255 12.7755 13.8497 13.737 12.5972 14.4302Z" fill="white"/>
<path d="M9.3899 13.6002C9.03466 13.0263 8.48296 11.9248 8.48296 10.4149C8.48296 9.64979 8.62459 8.90553 8.90355 8.1994C8.51931 7.98024 8.10732 7.8098 7.67839 7.69491C7.4908 7.64471 7.29812 7.75594 7.24785 7.94347C6.86413 9.37498 7.13476 10.7809 7.76497 11.8723C8.14759 12.535 8.69706 13.1405 9.3899 13.6002Z" fill="white"/>
<path d="M12.6096 13.6006C13.3026 13.141 13.8522 12.5354 14.2349 11.8726C14.8651 10.7811 15.1357 9.37523 14.752 7.94372C14.7017 7.7562 14.509 7.64494 14.3214 7.69516C13.8924 7.81005 13.4804 7.98054 13.0962 8.19975C13.3751 8.90583 13.5167 9.65006 13.5167 10.4152C13.5167 11.9264 12.964 13.0282 12.6096 13.6006Z" fill="white"/>
<path d="M11.2485 6.63619C11.1826 6.57026 11.093 6.5332 10.9998 6.5332C10.9065 6.5332 10.8171 6.57026 10.7512 6.63619C9.83035 7.55702 9.18604 8.8863 9.18604 10.415C9.18604 11.9445 9.83108 13.2738 10.7512 14.1939C10.8171 14.2598 10.9067 14.2969 11 14.2969C11.0932 14.2969 11.1826 14.2598 11.2485 14.1939C12.1684 13.274 12.8137 11.9448 12.8137 10.415C12.8137 8.8856 12.1689 7.55651 11.2485 6.63619Z" fill="white"/>
</g>
<defs>
<filter id="filter0_d" x="1" y="3" width="22" height="22" filterUnits="userSpaceOnUse" color-interpolation-filters="sRGB">
<feFlood flood-opacity="0" result="BackgroundImageFix"/>
<feColorMatrix in="SourceAlpha" type="matrix" values="0 0 0 0 0 0 0 0 0 0 0 0 0 0 0 0 0 0 127 0"/>
<feOffset dx="1" dy="3"/>
<feGaussianBlur stdDeviation="2.5"/>
<feColorMatrix type="matrix" values="0 0 0 0 0 0 0 0 0 0 0 0 0 0 0 0 0 0 0.2 0"/>
<feBlend mode="normal" in2="BackgroundImageFix" result="effect1_dropShadow"/>
<feBlend mode="normal" in="SourceGraphic" in2="effect1_dropShadow" result="shape"/>
</filter>
</defs>
</svg>
