<svg width="24" height="25" viewBox="0 0 24 25" fill="none" xmlns="http://www.w3.org/2000/svg">
<g clip-path="url(#clip0)">
<path d="M9.13333 2.9166C9.08333 4.16667 8.26596 4.0665 7.83333 4.0665C7.40071 4.0665 7 3.71579 7 3.28317C7 2.85055 7.40071 2.08327 7.83333 2.08327C8.26596 2.08327 9.18333 1.66654 9.13333 2.9166Z" fill="#7B8BB2"/>
<path d="M9.4977 7.39762C9.4537 8.1608 9.08333 8.3169 7.97566 8.26481C7.46915 8.26481 7 8.04679 7 7.69538C7 7.34396 7.46915 6.72071 7.97566 6.72071C8.48218 6.72071 9.54171 6.63443 9.4977 7.39762Z" fill="#7B8BB2"/>
<path d="M7.23438 7.5H4.89062C3.72566 7.5 2.78125 6.55559 2.78125 5.39062C2.78125 4.22563 3.72566 3.28125 4.89062 3.28125H7.23438C6.06941 3.28125 5.125 4.22563 5.125 5.39062C5.125 6.55559 6.06941 7.5 7.23438 7.5ZM5.125 12.5C5.125 11.335 6.06941 10.3906 7.23438 10.3906H4.89062C3.72566 10.3906 2.78125 11.335 2.78125 12.5C2.78125 13.665 3.72566 14.6094 4.89062 14.6094H7.23438C6.06941 14.6094 5.125 13.665 5.125 12.5ZM5.125 19.6094C5.125 18.4444 6.06941 17.5 7.23438 17.5H4.89062C3.72566 17.5 2.78125 18.4444 2.78125 19.6094C2.78125 20.7743 3.72566 21.7188 4.89062 21.7188H7.23438C6.06941 21.7188 5.125 20.7743 5.125 19.6094Z" fill="#D7DDEC"/>
<path d="M8.14785 8.28127H4.89062C3.29672 8.28127 2 6.98455 2 5.39064C2 3.79674 3.29672 2.50002 4.89062 2.50002H8.17187C8.60336 2.50002 8.95312 2.84978 8.95312 3.28127C8.95312 3.71275 8.60336 4.06252 8.17187 4.06252H4.89062C4.15828 4.06252 3.5625 4.6583 3.5625 5.39064C3.5625 6.12299 4.15828 6.71877 4.89062 6.71877H8.14785C8.57934 6.71877 8.9291 7.06853 8.9291 7.50002C8.9291 7.9315 8.57934 8.28127 8.14785 8.28127ZM22 5.39064C22 3.79674 20.7033 2.50002 19.1094 2.50002L7.83333 2.5C7.40185 2.5 8.95312 2.84978 8.95312 3.28127C8.95312 3.71275 7.65576 4.06252 8.08724 4.06252H19.1094C19.8417 4.06252 20.4375 4.6583 20.4375 5.39064C20.4375 6.12299 19.8417 6.71877 19.1094 6.71877H8.25C7.81852 6.71877 8.9291 7.06853 8.9291 7.50002C8.9291 7.9315 7.81852 8.28127 8.25 8.28127H19.1094C20.7033 8.28127 22 6.98455 22 5.39064ZM15.6328 14.6094C15.6328 14.1779 15.283 13.8281 14.8516 13.8281H4.89062C4.15828 13.8281 3.5625 13.2324 3.5625 12.5C3.5625 11.7677 4.15828 11.1719 4.89062 11.1719H14.8516C15.283 11.1719 15.6328 10.8221 15.6328 10.3906C15.6328 9.95916 15.283 9.60939 14.8516 9.60939H4.89062C3.29672 9.60939 2 10.9061 2 12.5C2 14.0939 3.29672 15.3906 4.89062 15.3906H14.8516C15.283 15.3906 15.6328 15.0409 15.6328 14.6094ZM21.9609 19.6094C21.9609 18.0155 20.6642 16.7188 19.0703 16.7188H9.08333C8.65185 16.7188 7.83333 17.0685 7.83333 17.5C7.83333 17.9315 9.48518 18.2813 9.91667 18.2813H19.0703C19.8027 18.2813 20.3984 18.877 20.3984 19.6094C20.3984 20.3417 19.8027 20.9375 19.0703 20.9375H9.08333C8.65185 20.9375 9.5 21.2873 9.5 21.7188C9.5 22.1502 9.06852 22.5 9.5 22.5H19.0703C20.6642 22.5 21.9609 21.2033 21.9609 19.6094ZM10.8672 21.7188C10.8672 21.2873 10.5174 20.9375 10.0859 20.9375H4.89062C4.15828 20.9375 3.5625 20.3417 3.5625 19.6094C3.5625 18.877 4.15828 18.2813 4.89062 18.2813H10.0859C10.5174 18.2813 10.8672 17.9315 10.8672 17.5C10.8672 17.0685 10.5174 16.7188 10.0859 16.7188H4.89062C3.29672 16.7188 2 18.0155 2 19.6094C2 21.2033 3.29672 22.5 4.89062 22.5H10.0859C10.5174 22.5 10.8672 22.1502 10.8672 21.7188Z" fill="#376AED"/>
<path d="M19.0703 15.3906H17.9766C17.5451 15.3906 17.1953 15.0409 17.1953 14.6094C17.1953 14.1779 17.5451 13.8281 17.9766 13.8281H19.0703C19.8027 13.8281 20.3984 13.2323 20.3984 12.5C20.3984 11.7677 19.8027 11.1719 19.0703 11.1719H17.9766C17.5451 11.1719 17.1953 10.8221 17.1953 10.3906C17.1953 9.95914 17.5451 9.60938 17.9766 9.60938H19.0703C20.6642 9.60938 21.9609 10.9061 21.9609 12.5C21.9609 14.0939 20.6642 15.3906 19.0703 15.3906Z" fill="#4DC4E7"/>
</g>
<defs>
<clipPath id="clip0">
<rect width="20" height="20" fill="white" transform="translate(2 2.5)"/>
</clipPath>
</defs>
</svg>
