<svg width="24" height="24" viewBox="0 0 24 24" fill="none" xmlns="http://www.w3.org/2000/svg">
<g clip-path="url(#clip0)">
<path d="M9.13333 2.4166C9.08333 3.66667 8.26596 3.5665 7.83333 3.5665C7.40071 3.5665 7 3.21579 7 2.78317C7 2.35055 7.40071 1.58327 7.83333 1.58327C8.26596 1.58327 9.18333 1.16654 9.13333 2.4166Z" fill="#7B8BB2"/>
<path d="M9.4977 6.89762C9.4537 7.6608 9.08333 7.8169 7.97566 7.76481C7.46915 7.76481 7 7.54679 7 7.19538C7 6.84396 7.46915 6.22071 7.97566 6.22071C8.48218 6.22071 9.54171 6.13443 9.4977 6.89762Z" fill="#7B8BB2"/>
<path d="M7.23438 7H4.89062C3.72566 7 2.78125 6.05559 2.78125 4.89062C2.78125 3.72563 3.72566 2.78125 4.89062 2.78125H7.23438C6.06941 2.78125 5.125 3.72563 5.125 4.89062C5.125 6.05559 6.06941 7 7.23438 7ZM5.125 12C5.125 10.835 6.06941 9.89062 7.23438 9.89062H4.89062C3.72566 9.89062 2.78125 10.835 2.78125 12C2.78125 13.165 3.72566 14.1094 4.89062 14.1094H7.23438C6.06941 14.1094 5.125 13.165 5.125 12ZM5.125 19.1094C5.125 17.9444 6.06941 17 7.23438 17H4.89062C3.72566 17 2.78125 17.9444 2.78125 19.1094C2.78125 20.2743 3.72566 21.2188 4.89062 21.2188H7.23438C6.06941 21.2188 5.125 20.2743 5.125 19.1094Z" fill="#D7DDEC"/>
<path d="M8.14785 7.78127H4.89062C3.29672 7.78127 2 6.48455 2 4.89064C2 3.29674 3.29672 2.00002 4.89062 2.00002H8.17188C8.60336 2.00002 8.95312 2.34978 8.95312 2.78127C8.95312 3.21275 8.60336 3.56252 8.17188 3.56252H4.89062C4.15828 3.56252 3.5625 4.1583 3.5625 4.89064C3.5625 5.62299 4.15828 6.21877 4.89062 6.21877H8.14785C8.57934 6.21877 8.9291 6.56853 8.9291 7.00002C8.9291 7.4315 8.57934 7.78127 8.14785 7.78127ZM22 4.89064C22 3.29674 20.7033 2.00002 19.1094 2.00002L7.83333 2C7.40185 2 8.95312 2.34978 8.95312 2.78127C8.95312 3.21275 7.65576 3.56252 8.08724 3.56252H19.1094C19.8417 3.56252 20.4375 4.1583 20.4375 4.89064C20.4375 5.62299 19.8417 6.21877 19.1094 6.21877H8.25C7.81852 6.21877 8.9291 6.56853 8.9291 7.00002C8.9291 7.4315 7.81852 7.78127 8.25 7.78127H19.1094C20.7033 7.78127 22 6.48455 22 4.89064ZM15.6328 14.1094C15.6328 13.6779 15.283 13.3281 14.8516 13.3281H4.89062C4.15828 13.3281 3.5625 12.7324 3.5625 12C3.5625 11.2677 4.15828 10.6719 4.89062 10.6719H14.8516C15.283 10.6719 15.6328 10.3221 15.6328 9.89064C15.6328 9.45916 15.283 9.10939 14.8516 9.10939H4.89062C3.29672 9.10939 2 10.4061 2 12C2 13.5939 3.29672 14.8906 4.89062 14.8906H14.8516C15.283 14.8906 15.6328 14.5409 15.6328 14.1094ZM21.9609 19.1094C21.9609 17.5155 20.6642 16.2188 19.0703 16.2188H9.08333C8.65185 16.2188 7.83333 16.5685 7.83333 17C7.83333 17.4315 9.48518 17.7813 9.91667 17.7813H19.0703C19.8027 17.7813 20.3984 18.377 20.3984 19.1094C20.3984 19.8417 19.8027 20.4375 19.0703 20.4375H9.08333C8.65185 20.4375 9.5 20.7873 9.5 21.2188C9.5 21.6502 9.06852 22 9.5 22H19.0703C20.6642 22 21.9609 20.7033 21.9609 19.1094ZM10.8672 21.2188C10.8672 20.7873 10.5174 20.4375 10.0859 20.4375H4.89062C4.15828 20.4375 3.5625 19.8417 3.5625 19.1094C3.5625 18.377 4.15828 17.7813 4.89062 17.7813H10.0859C10.5174 17.7813 10.8672 17.4315 10.8672 17C10.8672 16.5685 10.5174 16.2188 10.0859 16.2188H4.89062C3.29672 16.2188 2 17.5155 2 19.1094C2 20.7033 3.29672 22 4.89062 22H10.0859C10.5174 22 10.8672 21.6502 10.8672 21.2188Z" fill="#7B8BB2"/>
<path d="M19.0703 14.8906H17.9766C17.5451 14.8906 17.1953 14.5409 17.1953 14.1094C17.1953 13.6779 17.5451 13.3281 17.9766 13.3281H19.0703C19.8027 13.3281 20.3984 12.7323 20.3984 12C20.3984 11.2677 19.8027 10.6719 19.0703 10.6719H17.9766C17.5451 10.6719 17.1953 10.3221 17.1953 9.89062C17.1953 9.45914 17.5451 9.10938 17.9766 9.10938H19.0703C20.6642 9.10938 21.9609 10.4061 21.9609 12C21.9609 13.5939 20.6642 14.8906 19.0703 14.8906Z" fill="#D7DDEC"/>
</g>
<defs>
<clipPath id="clip0">
<rect width="20" height="20" fill="white" transform="translate(2 2)"/>
</clipPath>
</defs>
</svg>
