<svg width="32" height="32" viewBox="0 0 32 32" fill="none" xmlns="http://www.w3.org/2000/svg">
<path d="M8.75 17.0002V17V13C8.75 11.0772 9.51384 9.23312 10.8735 7.87348C12.2331 6.51384 14.0772 5.75 16 5.75C17.9228 5.75 19.7669 6.51384 21.1265 7.87348C22.4862 9.23311 23.25 11.0772 23.25 13V17V17.0002C23.2501 17.4642 23.4345 17.9092 23.7627 18.2373C23.7627 18.2374 23.7627 18.2374 23.7628 18.2374L26.1768 20.6515C26.2237 20.6984 26.25 20.762 26.25 20.8283V21C26.25 21.1381 26.1381 21.25 26 21.25H6C5.86193 21.25 5.75 21.1381 5.75 21V20.8283C5.75 20.762 5.77634 20.6984 5.82322 20.6515L8.23725 18.2374C8.56546 17.9093 8.7499 17.4643 8.75 17.0002ZM18.25 25C18.25 25.5967 18.0129 26.169 17.591 26.591C17.169 27.0129 16.5967 27.25 16 27.25C15.4033 27.25 14.831 27.0129 14.409 26.591C13.9871 26.169 13.75 25.5967 13.75 25V24.75H18.25V25Z" stroke="#0D253C" stroke-width="1.5"/>
</svg>
