<svg width="24" height="24" viewBox="0 0 24 24" fill="none" xmlns="http://www.w3.org/2000/svg">
<path d="M5.16847 10.2358C5.16847 6.50326 7.91364 3.41137 11.4966 2.86604C11.1273 2.8098 10.7489 2.78064 10.3638 2.78064C6.24324 2.78064 2.90283 6.11847 2.90283 10.2359C2.90283 14.3533 6.24324 17.6911 10.3638 17.6911C10.7489 17.6911 11.1273 17.6619 11.4966 17.6057C7.91368 17.0603 5.16847 13.9684 5.16847 10.2358Z" fill="#D7DDEC"/>
<path d="M10.2422 18.4718C5.69744 18.4718 2 14.7772 2 10.2359C2 5.69459 5.69744 2 10.2422 2C14.787 2 18.4845 5.69459 18.4845 10.2359C18.4845 14.7772 14.787 18.4718 10.2422 18.4718ZM10.2422 3.5613C6.55901 3.5613 3.56251 6.5555 3.56251 10.2359C3.56251 13.9163 6.55901 16.9105 10.2422 16.9105C13.9255 16.9105 16.922 13.9163 16.922 10.2359C16.922 6.5555 13.9255 3.5613 10.2422 3.5613Z" fill="#7B8BB2"/>
<path d="M21.2188 22.0002C21.0189 22.0002 20.8189 21.924 20.6663 21.7716L17.1702 18.2781C16.8651 17.9733 16.8651 17.4789 17.1702 17.1741C17.4753 16.8692 17.97 16.8692 18.2751 17.1741L21.7712 20.6675C22.0763 20.9724 22.0763 21.4667 21.7712 21.7716C21.6187 21.9239 21.4187 22.0002 21.2188 22.0002Z" fill="#D7DDEC"/>
</svg>
