<svg width="24" height="25" viewBox="0 0 24 25" fill="none" xmlns="http://www.w3.org/2000/svg">
<path d="M5.16847 10.7358C5.16847 7.00326 7.91364 3.91137 11.4966 3.36604C11.1273 3.3098 10.7489 3.28064 10.3638 3.28064C6.24324 3.28064 2.90283 6.61847 2.90283 10.7359C2.90283 14.8533 6.24324 18.1911 10.3638 18.1911C10.7489 18.1911 11.1273 18.1619 11.4966 18.1057C7.91368 17.5603 5.16847 14.4684 5.16847 10.7358Z" fill="#D7DDEC"/>
<path d="M10.2422 18.9718C5.69744 18.9718 2 15.2772 2 10.7359C2 6.19459 5.69744 2.5 10.2422 2.5C14.787 2.5 18.4845 6.19459 18.4845 10.7359C18.4845 15.2772 14.787 18.9718 10.2422 18.9718V18.9718ZM10.2422 4.0613C6.55901 4.0613 3.56251 7.0555 3.56251 10.7359C3.56251 14.4163 6.55901 17.4105 10.2422 17.4105C13.9255 17.4105 16.922 14.4163 16.922 10.7359C16.922 7.0555 13.9255 4.0613 10.2422 4.0613V4.0613Z" fill="#376AED"/>
<path d="M21.219 22.5002C21.0191 22.5002 20.8191 22.424 20.6666 22.2716L17.1705 18.7781C16.8654 18.4733 16.8654 17.9789 17.1705 17.6741C17.4756 17.3692 17.9703 17.3692 18.2753 17.6741L21.7715 21.1675C22.0765 21.4724 22.0765 21.9667 21.7715 22.2716C21.6189 22.4239 21.419 22.5002 21.219 22.5002Z" fill="#4DC4E7"/>
</svg>
