<svg version="1.1" xmlns="http://www.w3.org/2000/svg" xmlns:xlink="http://www.w3.org/1999/xlink" viewBox="0 0 172 172">
  <g fill="none" fill-rule="nonzero" stroke="none" stroke-width="1" stroke-linecap="butt" stroke-linejoin="miter" stroke-miterlimit="10" stroke-dasharray="" stroke-dashoffset="0" style="mix-blend-mode: normal">
    <path d="M0,172v-172h172v172z" fill="none"></path>
    <g fill="#71bfbc">
      <path d="M150.5,44.53725c-4.74075,2.09983 -9.83983,3.50092 -15.21842,4.16383c5.46817,-3.2465 9.675,-8.42442 11.64942,-14.54117c-5.117,2.99925 -10.78583,5.203 -16.81658,6.364c-4.816,-5.10625 -11.68525,-8.27392 -19.29625,-8.27392c-14.62,0 -26.47008,11.74617 -26.47008,26.23c0,2.04967 0.24008,4.04558 0.69158,5.98417c-21.9945,-1.10367 -41.50217,-11.55983 -54.55267,-27.42683c-2.29333,3.87717 -3.58333,8.41725 -3.58333,13.20817c0,9.10525 4.66192,17.12117 11.77125,21.844c-4.33942,-0.13258 -8.42442,-1.34017 -12.00058,-3.27517c0,0.07883 0,0.19708 0,0.30817c0,12.72442 9.12675,23.32033 21.22408,25.73192c-2.21092,0.60558 -4.54725,0.94242 -6.95525,0.94242c-1.70925,0 -3.3755,-0.1935 -4.988,-0.48375c3.36833,10.39883 13.14008,17.99908 24.71783,18.22483c-9.05867,7.02333 -20.468,11.23017 -32.8735,11.23017c-2.14283,0 -4.23908,-0.12183 -6.31025,-0.37267c11.72108,7.42108 25.63875,11.77125 40.57767,11.77125c48.67958,0 75.31092,-39.97567 75.31092,-74.65517c0,-1.13592 -0.03583,-2.26825 -0.08958,-3.38625c5.19583,-3.66933 9.675,-8.299 13.21175,-13.588"></path>
    </g>
  </g>
</svg>