<svg width="36" height="36" viewBox="0 0 36 36" fill="none" xmlns="http://www.w3.org/2000/svg">
<circle cx="18" cy="18" r="18" fill="#65AFF6"/>
<path d="M14.29 26C21.837 26 25.965 19.8436 25.965 14.5055C25.965 14.3302 25.965 14.1559 25.953 13.9827C26.756 13.4116 27.449 12.7028 28 11.8915C27.252 12.2184 26.457 12.433 25.644 12.5275C26.5 12.0224 27.141 11.2289 27.448 10.2926C26.642 10.7632 25.761 11.095 24.842 11.2732C23.288 9.64674 20.689 9.56798 19.036 11.098C17.971 12.0845 17.518 13.5554 17.849 14.9583C14.55 14.7949 11.476 13.261 9.392 10.7376C8.303 12.5836 8.86 14.9446 10.663 16.13C10.01 16.1112 9.371 15.938 8.8 15.6249V15.6761C8.801 17.5989 10.178 19.2549 12.092 19.6359C11.488 19.7984 10.854 19.822 10.24 19.7048C10.777 21.351 12.318 22.4783 14.073 22.5108C12.62 23.6351 10.825 24.2455 8.977 24.2436C8.651 24.2426 8.325 24.2239 8 24.1855C9.877 25.3709 12.06 26 14.29 25.997" fill="white"/>
</svg>
