<svg width="23" height="24" viewBox="0 0 23 24" fill="none" xmlns="http://www.w3.org/2000/svg">
<circle cx="11" cy="11" r="10" fill="#4DC4E7" stroke="#F9FBFF" stroke-width="2"/>
<g filter="url(#filter0_d)">
<path fill-rule="evenodd" clip-rule="evenodd" d="M7.7296 6.83301H10.9474C12.293 6.83301 13.2324 7.76025 13.2324 9.08907V12.9103C13.2324 14.2391 12.293 15.1663 10.9474 15.1663H7.7296C6.38403 15.1663 5.44458 14.2391 5.44458 12.9103V9.08907C5.44458 7.76025 6.38403 6.83301 7.7296 6.83301ZM15.4212 8.15456C15.6651 8.03048 15.9512 8.04345 16.184 8.19009C16.4168 8.33617 16.5557 8.58998 16.5557 8.86748V13.132C16.5557 13.4101 16.4168 13.6633 16.184 13.8094C16.0568 13.8889 15.9146 13.9295 15.7712 13.9295C15.6518 13.9295 15.5323 13.9013 15.4207 13.8444L14.5979 13.4292C14.2934 13.2747 14.1045 12.9645 14.1045 12.6199V9.37904C14.1045 9.03386 14.2934 8.72365 14.5979 8.57024L15.4212 8.15456Z" fill="white"/>
</g>
<defs>
<filter id="filter0_d" x="0.333496" y="2.33301" width="23.3333" height="23.3333" filterUnits="userSpaceOnUse" color-interpolation-filters="sRGB">
<feFlood flood-opacity="0" result="BackgroundImageFix"/>
<feColorMatrix in="SourceAlpha" type="matrix" values="0 0 0 0 0 0 0 0 0 0 0 0 0 0 0 0 0 0 127 0"/>
<feOffset dx="1" dy="3"/>
<feGaussianBlur stdDeviation="2.5"/>
<feColorMatrix type="matrix" values="0 0 0 0 0 0 0 0 0 0 0 0 0 0 0 0 0 0 0.2 0"/>
<feBlend mode="normal" in2="BackgroundImageFix" result="effect1_dropShadow"/>
<feBlend mode="normal" in="SourceGraphic" in2="effect1_dropShadow" result="shape"/>
</filter>
</defs>
</svg>
